<?xml version="1.0" encoding="utf-8"?>
<svg viewBox="0 0 500 500" xmlns="http://www.w3.org/2000/svg">
  <g id="7935ec95c421cee6d86eb22ecd12f847" transform="matrix(0.965561, 0, 0, 0.965561, 2.737791, 0.932514)" style="">
    <path fill-rule="evenodd" clip-rule="evenodd" d="M 10.586 256.929 C 10.586 121.225 120.599 11.181 256.336 11.181 C 392.073 11.181 502.119 121.225 502.119 256.929 C 502.119 392.667 392.073 502.712 256.336 502.712 C 120.599 502.712 10.586 392.667 10.586 256.929 Z M 263.74 184.759 C 210.616 180.392 156.544 186.911 112.216 202.573 L 101.3 171.691 C 150.437 154.322 209.193 147.423 266.4 152.105 C 323.572 156.789 380.431 173.116 425.105 203.489 L 406.692 230.605 C 367.9 204.249 316.896 189.125 263.74 184.759 Z M 119.587 273.066 C 232.479 253.102 311.202 263.32 376.445 310.149 L 395.553 283.507 C 320.25 229.467 231.184 220.037 113.861 240.793 L 119.587 273.066 Z M 130.566 342.676 C 162.903 334.796 202.642 331.347 241.719 335.177 C 280.921 339.037 318.226 350.079 346.638 370.075 L 365.496 343.278 C 330.976 319.009 287.662 306.763 244.947 302.586 C 202.106 298.38 158.63 302.081 122.816 310.845 L 130.566 342.676 Z" style="fill: rgb(68, 68, 68);"/>
  </g>
</svg>