<?xml version="1.0" encoding="utf-8"?>
<svg viewBox="0 0 500 500" xmlns="http://www.w3.org/2000/svg">
  <g id="7935ec95c421cee6d86eb22ecd12f847" transform="matrix(0.965561, 0, 0, 0.965561, 2.737791, 0.932514)" style="">
    <path d="M 362.619 15.007 L 150.071 15.007 C 74.166 15.007 13.431 75.74 13.431 151.647 L 13.431 242.741 L 13.431 364.195 C 13.431 440.116 74.166 500.835 150.071 500.835 L 362.619 500.835 C 438.54 500.835 499.259 440.116 499.259 364.195 L 499.259 242.741 L 499.259 151.647 C 499.259 75.74 438.54 15.007 362.619 15.007 Z M 256.353 166.835 C 306.444 166.835 347.446 207.822 347.446 257.929 C 347.446 308.02 306.444 349.022 256.353 349.022 C 206.246 349.022 165.259 308.02 165.259 257.929 C 165.259 207.822 206.246 166.835 256.353 166.835 Z M 347.446 121.288 C 347.446 104.59 361.108 90.914 377.805 90.914 C 394.503 90.914 408.165 104.59 408.165 121.288 C 408.165 137.985 394.503 151.647 377.805 151.647 C 361.108 151.647 347.446 137.985 347.446 121.288 Z" style="transform-box: fill-box; transform-origin: 50% 50%; fill: rgb(221, 221, 221);"/>
  </g>
</svg>