<?xml version="1.0" encoding="utf-8"?>
<svg viewBox="0 0 500 500" xmlns="http://www.w3.org/2000/svg">
  <path d="M 475.321 195.46 C 475.405 194.622 475.405 193.775 475.321 192.929 C 453.829 99.191 366.66 23.485 271.815 16.2 C 172.179 8.561 84.2 58.365 40.546 147.721 C 24.329 180.787 16.198 215.882 17.826 253.005 C 17.267 296.008 28.842 335.754 51.153 372.068 C 86.21 429.241 136.526 465.238 201.589 480.096 C 208.297 481.65 209.237 479.91 209.218 473.621 C 209.041 400.594 209.041 327.557 209.218 254.521 C 209.218 248.39 208.008 246.343 201.505 246.445 C 179.473 246.771 157.432 246.343 135.4 246.194 C 135.4 222.478 135.8 198.762 135.186 175.047 C 134.981 167.231 137.391 166.198 144.416 166.198 C 182.106 166.571 219.862 166.757 257.487 166.198 C 273.611 165.966 285.101 171.288 291.018 186.984 L 291.716 192.185 C 293.4 194.427 292.814 197.05 292.814 199.535 L 292.814 480.245 C 293.893 480.329 294.982 480.329 296.061 480.245 C 341.325 472.299 378.653 449.012 411.747 418.364 C 442.003 390.331 461.654 355.116 473.042 315.462 C 484.42 275.799 485.732 235.653 475.321 195.46 Z M 245.15 147.079 C 224.411 148.093 202.212 123.856 202.175 100.14 C 202.072 94.111 203.152 88.129 205.357 82.528 C 207.562 76.936 210.846 71.838 215.024 67.539 C 219.201 63.241 224.188 59.826 229.677 57.491 C 235.176 55.155 241.075 53.946 247.039 53.946 C 259.143 53.965 270.736 58.84 279.286 67.493 C 287.837 76.136 292.647 87.859 292.656 100.084 C 292.572 125.326 271.936 145.776 245.15 147.079 Z" style="fill: rgb(221, 221, 221);"/>
</svg>